<?xml version="1.0" encoding="utf-8"?>
<svg viewBox="373.821 473.605 469.639 422.279" xmlns="http://www.w3.org/2000/svg">
  <g transform="matrix(1, 0, 0, 1, -827.237549, -1470.041748)">
    <title>celula g</title>
    <path d="M 1328.311 2161.266 C 1378.153 2164.3 1414.264 2125.534 1418.558 2071.275 C 1422.852 2017.017 1378.153 1973.761 1328.311 1981.285 C 1278.469 1988.809 1241.789 2019.679 1238.064 2071.275 C 1234.339 2122.872 1278.469 2158.232 1328.311 2161.266 Z" style="fill: rgb(69, 50, 100);" transform="matrix(0.777146, 0.62932, -0.62932, 0.777146, 1599.30586, -374.438472)"/>
    <path d="M 1473.46 2308.682 C 1550.673 2313.383 1606.616 2253.328 1613.267 2169.271 C 1619.92 2085.215 1550.673 2018.204 1473.46 2029.86 C 1396.247 2041.516 1339.424 2089.34 1333.652 2169.271 C 1327.882 2249.203 1396.247 2303.983 1473.46 2308.682 Z" fill="#F0C933" style="" transform="matrix(0.777146, 0.62932, -0.62932, 0.777146, 1693.208749, -443.99807)"/>
    <path d="M 1429.414 2023.803 C 1439.011 2024.386 1445.964 2016.922 1446.792 2006.474 C 1447.618 1996.027 1439.011 1987.697 1429.414 1989.146 C 1419.817 1990.594 1412.753 1996.539 1412.036 2006.474 C 1411.32 2016.409 1419.817 2023.218 1429.414 2023.803 Z" style="fill: rgb(69, 50, 100);" transform="matrix(-0.913545, 0.406737, -0.406737, -0.913545, 3551.341245, 3257.954814)"/>
  </g>
</svg>