<?xml version="1.0" encoding="utf-8"?>
<svg viewBox="835.438 1388.247 386.165 337.333" xmlns="http://www.w3.org/2000/svg">
  <g transform="matrix(1, 0, 0, 1, 301.784912, 211.070496)">
    <title>celula m</title>
    <path d="M 701.981 1463.182 C 772.509 1463.182 824.027 1411.609 824.027 1347.986 C 824.027 1284.367 764.221 1224.927 701.981 1232.795 C 639.74 1240.659 570.54 1278.436 579.935 1347.986 C 589.33 1417.539 631.456 1463.182 701.981 1463.182 Z" style="fill: rgb(15, 144, 209);" transform="matrix(0.777146, 0.62932, -0.62932, 0.777146, 1004.438241, -141.173619)"/>
    <path d="M 758.962 1217.579 C 768.559 1218.162 775.512 1210.698 776.34 1200.25 C 777.166 1189.803 768.559 1181.473 758.962 1182.922 C 749.365 1184.37 742.301 1190.315 741.584 1200.25 C 740.868 1210.185 749.365 1216.994 758.962 1217.579 Z" style="fill: rgb(15, 144, 209);" transform="matrix(-0.913545, 0.406737, -0.406737, -0.913545, 1940.479851, 1987.906407)"/>
    <path d="M 872.053 1322.441 C 891.076 1323.773 904.858 1306.717 906.499 1282.843 C 908.136 1258.971 891.076 1239.936 872.053 1243.247 C 853.031 1246.556 839.029 1260.14 837.608 1282.843 C 836.188 1305.545 853.031 1321.104 872.053 1322.441 Z" style="fill: rgb(15, 144, 209);" transform="matrix(-0.913545, 0.406737, -0.406737, -0.913545, 2190.45663, 2099.788981)"/>
  </g>
</svg>