<?xml version="1.0" encoding="utf-8"?>
<svg viewBox="390.921 1967.481 181.561 149.286" xmlns="http://www.w3.org/2000/svg">
  <g style="" transform="matrix(1, 0, 0, 1, -810.947449, 560.254333)">
    <title>celula p</title>
    <path d="M 1360.414 1454.565 C 1370.011 1455.148 1376.964 1447.684 1377.792 1437.236 C 1378.618 1426.789 1370.011 1418.459 1360.414 1419.908 C 1350.817 1421.356 1343.753 1427.301 1343.036 1437.236 C 1342.32 1447.171 1350.817 1453.98 1360.414 1454.565 Z" fill="#E0436B" style="" transform="matrix(-0.913545, 0.406737, -0.406737, -0.913545, 3187.776388, 2196.756933)"/>
    <path d="M 1276.698 1534.941 C 1307.259 1534.941 1329.583 1511.253 1329.583 1482.031 C 1329.583 1452.809 1303.668 1425.508 1276.698 1429.122 C 1249.728 1432.734 1219.742 1450.085 1223.813 1482.031 C 1227.884 1513.977 1246.138 1534.941 1276.698 1534.941 Z" fill="#E0436B" style="" transform="matrix(0.777146, 0.62932, -0.62932, 0.777146, 1217.046026, -473.093875)"/>
  </g>
</svg>