<?xml version="1.0" encoding="utf-8"?>
<svg viewBox="-338.265 -201.933 1593.237 961.976" xmlns="http://www.w3.org/2000/svg">
  <path id="HILL" class="cls-1" d="M -345.239 534.442 C -247.599 226.712 194.061 89.972 327.021 166.922 C 459.981 243.872 447.021 359.982 612.661 347.582 C 778.301 335.182 820.661 142.942 1005.011 195.932 C 1189.361 248.922 1254.811 531.442 1254.811 531.442" style="fill: rgb(214, 234, 242);"/>
  <g id="TREE" transform="matrix(1, 0, 0, 1, -430.402985, -251.33049)">
    <line class="cls-2" x1="402.2" y1="153.03" x2="402.2" y2="788.958" style="fill: none; stroke: rgb(241, 177, 4); stroke-miterlimit: 10; stroke-width: 3px;"/>
    <path class="cls-2" d="M557.73,230.5v4a44.65,44.65,0,0,1-44.65,44.65H485.75a22,22,0,0,0-22,22" style="fill: none; stroke: rgb(241, 177, 4); stroke-miterlimit: 10; stroke-width: 3px;"/>
    <path class="cls-2" d="M513.08,279.18h87.8A41.64,41.64,0,0,0,634.59,262" style="fill: none; stroke: rgb(241, 177, 4); stroke-miterlimit: 10; stroke-width: 3px;"/>
    <path class="cls-2" d="M362.29,153v94.13A95.92,95.92,0,0,0,390.38,315h0a40.35,40.35,0,0,1,11.82,28.54" style="fill: none; stroke: rgb(241, 177, 4); stroke-miterlimit: 10; stroke-width: 3px;"/>
    <path class="cls-2" d="M463.93,230.5v62.33a118.37,118.37,0,0,1-37.87,86.79l-1.37,1.27a70.28,70.28,0,0,0-22.49,51.53" style="fill: none; stroke: rgb(241, 177, 4); stroke-miterlimit: 10; stroke-width: 3px;"/>
    <path class="cls-2" d="M308.72,196.52V369.93a185.91,185.91,0,0,0,61.06,137.75h0a98.69,98.69,0,0,1,32.42,73.14" style="fill: none; stroke: rgb(241, 177, 4); stroke-miterlimit: 10; stroke-width: 3px;"/>
    <path class="cls-2" d="M216.41,152.45c0,42.68,27.17,69.15,60.69,69.15h31.62" style="fill: none; stroke: rgb(241, 177, 4); stroke-miterlimit: 10; stroke-width: 3px;"/>
    <path class="cls-2" d="M280.82,334.38v44.56a32,32,0,0,0,32,32h.47" style="fill: none; stroke: rgb(241, 177, 4); stroke-miterlimit: 10; stroke-width: 3px;"/>
    <path class="cls-2" d="M286.19,396.69H242.05a66.89,66.89,0,0,1-66.89-66.89" style="fill: none; stroke: rgb(241, 177, 4); stroke-miterlimit: 10; stroke-width: 3px;"/>
    <path class="cls-2" d="M495.44,486.93v21.83a122.12,122.12,0,0,1-35.77,86.35L424.74,630a77,77,0,0,0-22.54,54.41" style="fill: none; stroke: rgb(241, 177, 4); stroke-miterlimit: 10; stroke-width: 3px;"/>
    <path class="cls-2" d="M531.31,479.86a34.37,34.37,0,0,1-34.37,34.37h-1.63" style="fill: none; stroke: rgb(241, 177, 4); stroke-miterlimit: 10; stroke-width: 3px;"/>
    <path class="cls-3" d="M512,480.31H587.7s15.65-11.46,2.37-24.53c-8.61-8.47-22.55-3.13-22.55-3.13s14.83-48.67-31.46-53.72S480.85,432.47,488,449.09s-91-22.78-102.69,24c-.89,3.56,31.16,8,61.73,3.26,0,0,9.79,30.57,44.26,24.78C515.49,497.11,512,480.31,512,480.31Z" style="fill: rgb(153, 201, 229);"/>
    <path class="cls-3" d="M186.76,331.91H99s-1.78-44.42,122.87-28.4c0,0,3.52-44.06,70.29-41.83s65.93,71.51,63.26,73.14-61,0-61,0-6.8,33.82-61.71,33.82C196.83,368.64,186.76,331.91,186.76,331.91Z" style="fill: rgb(153, 201, 229);"/>
    <path class="cls-3" d="M595.41,231H444.07c-13.63,0-24.13-12.49-21.27-25.82,1.56-7.29,6.88-14,19.92-16.92,28-6.23,44.07,3.49,44.07,3.49s-25.39-68.89,60.1-68.93c79.24,0,70.64,52.12,69.45,60.54C614.41,197,671,169.07,703,204.68s-24.82,69.75-57.77,61.59S595.41,231,595.41,231Z" style="fill: rgb(153, 201, 229);"/>
    <path class="cls-3" d="M356.59,154H478.18s11.25-20-12.12-29.75-74.49,1.18-74.49,1.18S395,52.12,326.15,57.28c-62.48,4.68-58.69,55.44-58.69,55.44S205.6,97,154.67,135.66c-8.73,6.64-4.67,16.55,6.3,16.55,14.42,0,66.27.55,66.27.55s14.65,51,80.15,44.58C353.44,192.84,356.59,154,356.59,154Z" style="fill: rgb(153, 201, 229);"/>
    <circle class="cls-4" cx="507.32" cy="152.81" r="5.5" style="fill: none; stroke: rgb(255, 255, 255); stroke-linecap: round; stroke-linejoin: round; stroke-width: 3px;"/>
    <circle class="cls-5" cx="252.33" cy="95.65" r="5.33" style="fill: none; stroke: rgb(153, 201, 229); stroke-linecap: round; stroke-linejoin: round; stroke-width: 3px;"/>
    <circle class="cls-5" cx="155.38" cy="346.19" r="7.73" style="fill: none; stroke: rgb(153, 201, 229); stroke-linecap: round; stroke-linejoin: round; stroke-width: 3px;"/>
    <circle class="cls-5" cx="470.05" cy="433.38" r="5.5" style="fill: none; stroke: rgb(153, 201, 229); stroke-linecap: round; stroke-linejoin: round; stroke-width: 3px;"/>
    <circle class="cls-4" cx="301.13" cy="90.32" r="10.66" style="fill: none; stroke: rgb(255, 255, 255); stroke-linecap: round; stroke-linejoin: round; stroke-width: 3px;"/>
    <circle class="cls-4" cx="627.41" cy="207.14" r="10.61" style="fill: none; stroke: rgb(255, 255, 255); stroke-linecap: round; stroke-linejoin: round; stroke-width: 3px;"/>
    <circle class="cls-4" cx="333.23" cy="312.46" r="8" style="fill: none; stroke: rgb(255, 255, 255); stroke-linecap: round; stroke-linejoin: round; stroke-width: 3px;"/>
    <circle class="cls-4" cx="470.05" cy="482.17" r="8" style="fill: none; stroke: rgb(255, 255, 255); stroke-linecap: round; stroke-linejoin: round; stroke-width: 3px;"/>
    <circle class="cls-4" cx="328.9" cy="76.6" r="3.73" style="fill: none; stroke: rgb(255, 255, 255); stroke-linecap: round; stroke-linejoin: round; stroke-width: 3px;"/>
    <circle class="cls-4" cx="604.97" cy="179.89" r="3.85" style="fill: none; stroke: rgb(255, 255, 255); stroke-linecap: round; stroke-linejoin: round; stroke-width: 3px;"/>
    <circle class="cls-4" cx="308.72" cy="315.12" r="3.85" style="fill: none; stroke: rgb(255, 255, 255); stroke-linecap: round; stroke-linejoin: round; stroke-width: 3px;"/>
    <circle class="cls-4" cx="137.35" cy="320.46" r="3.85" style="fill: none; stroke: rgb(255, 255, 255); stroke-linecap: round; stroke-linejoin: round; stroke-width: 3px;"/>
  </g>
  <g id="WAY" transform="matrix(0.94898, -0.007641, -0.000028, 1.14585, -530.004639, -468.575012)" style="">
    <path id="WAY-2" data-name="WAY" class="cls-1" d="M 977.884 780.14 C 963.572 776.137 670.174 625.536 872.46 820.097 C 1074.746 1014.658 432.164 912.373 186.741 1003.424 L 189.03 1078.345 L 1879.349 1085.872 L 1880.672 1027.976 C 1369.984 992.811 1093.119 957.343 1229.112 831.933 C 1285.972 779.498 1153.194 899.434 1236.969 865.345 C 1390.895 802.711 1068.531 756.907 977.884 780.14 Z" style="fill: rgb(214, 234, 242);"/>
    <ellipse class="cls-6" cx="666.161" cy="909.019" rx="48.83" ry="8.26" style="fill: none; stroke: rgb(205, 232, 236); stroke-linecap: round; stroke-linejoin: round; stroke-width: 3px;"/>
    <ellipse class="cls-6" cx="783.047" cy="928.181" rx="18.58" ry="4.76" style="fill: none; stroke: rgb(205, 232, 236); stroke-linecap: round; stroke-linejoin: round; stroke-width: 3px;"/>
    <ellipse class="cls-6" cx="1519.39" cy="948.577" rx="48.83" ry="8.26" style="fill: none; stroke: rgb(205, 232, 236); stroke-linecap: round; stroke-linejoin: round; stroke-width: 3px;"/>
    <ellipse class="cls-6" cx="1611.669" cy="940.86" rx="18.58" ry="4.76" style="fill: none; stroke: rgb(205, 232, 236); stroke-linecap: round; stroke-linejoin: round; stroke-width: 3px;"/>
    <ellipse class="cls-6" cx="1448.755" cy="926.695" rx="18.58" ry="4.76" style="fill: none; stroke: rgb(205, 232, 236); stroke-linecap: round; stroke-linejoin: round; stroke-width: 3px;"/>
  </g>
  <g id="CLOUDS_SUN" data-name="CLOUDS &amp; SUN" transform="matrix(1, 0, 0, 1, -466.228485, -266.494354)">
    <circle class="cls-8" cx="1236.293" cy="214.874" r="76.1" style="fill: rgb(255, 186, 0);"/>
    <path class="cls-7" d="M 1328.046 401.204 C 1277.246 390.534 1273.456 424.034 1273.456 424.034 L 1646.576 424.034 C 1651.166 372.864 1586.426 383.164 1586.426 383.164 C 1586.426 383.164 1593.966 346.474 1536.746 333.974 C 1479.526 321.474 1449.266 355.974 1454.026 384.274 C 1454.026 384.274 1427.196 347.994 1382.426 362.144 C 1348.006 373.024 1383.326 396.344 1376.086 404.604 C 1368.636 413.074 1353.846 406.624 1328.046 401.204 Z" style="fill: rgb(255, 255, 255); stroke: rgb(205, 232, 236); stroke-linecap: round; stroke-linejoin: round; stroke-width: 3px;"/>
    <path class="cls-7" d="M917.34,365.23H616.12s3.49-30.2,48.21-20.16c60.1,13.49,86.24,4.36,83-15-4.2-25,22.51-55.44,73-44.4s43.87,43.43,43.87,43.43S921.39,320,917.34,365.23Z" style="fill: rgb(255, 255, 255); stroke: rgb(205, 232, 236); stroke-linecap: round; stroke-linejoin: round; stroke-width: 3px;"/>
    <line class="cls-7" x1="668.31" y1="383.17" x2="816.74" y2="383.17" style="fill: rgb(255, 255, 255); stroke: rgb(205, 232, 236); stroke-linecap: round; stroke-linejoin: round; stroke-width: 3px;"/>
    <path class="cls-7" d="M 960.873 238.264 L 1238.233 238.264 C 1238.233 238.264 1234.773 208.264 1190.373 218.264 C 1130.693 231.654 1126.463 218.264 1129.693 199.064 C 1133.863 174.264 1107.333 139.674 1057.173 150.624 C 1007.013 161.574 1017.943 219.814 1017.943 219.814 C 1017.943 219.814 968.943 208.284 960.873 238.264 Z" style="fill: rgb(255, 255, 255); stroke: rgb(205, 232, 236); stroke-linecap: round; stroke-linejoin: round; stroke-width: 3px;"/>
    <line class="cls-7" x1="1093.993" y1="252.684" x2="1242.423" y2="252.684" style="fill: rgb(255, 255, 255); stroke: rgb(205, 232, 236); stroke-linecap: round; stroke-linejoin: round; stroke-width: 3px;"/>
  </g>
  <g id="PLANTS" transform="matrix(1, 0, 0, 1, -549.037048, -315.126831)">
    <g transform="matrix(0.873914, 0, 0, 0.789386, 261.826996, 166.624435)" style="">
      <g transform="matrix(1, 0, 0, 1, -218.721634, 18.703196)">
        <path class="cls-9" d="M 2021.54 843.24 C 2021.54 843.24 2020.54 754.94 1927.29 759.11 C 1927.29 759.11 1897 564.39 1724.58 544.61 C 1514.86 520.55 1473.82 752.61 1473.82 752.61 C 1473.82 752.61 1275 693.22 1249.49 843.24 Z" style="fill: rgb(249, 197, 67);"/>
        <path class="cls-10" d="M 2021.54 843.24 C 2021.54 843.24 2020.54 754.94 1927.29 759.11 C 1927.29 759.11 1897 564.39 1724.58 544.61 C 1514.86 520.55 1473.82 752.61 1473.82 752.61 C 1473.82 752.61 1275 693.22 1249.49 843.24 Z" style="fill: none; stroke: rgb(211, 160, 0); stroke-linecap: round; stroke-linejoin: round; stroke-width: 3px;"/>
        <path class="cls-10" d="M 1706.83 543.16 C 1706.83 543.16 1639.94 721.16 1696.73 843.24" style="fill: none; stroke: rgb(211, 160, 0); stroke-linecap: round; stroke-linejoin: round; stroke-width: 3px;"/>
        <path class="cls-10" d="M 1750 549 C 1750 549 1731.9 686.95 1675 755.29" style="fill: none; stroke: rgb(211, 160, 0); stroke-linecap: round; stroke-linejoin: round; stroke-width: 3px;"/>
        <path class="cls-10" d="M 1662.19 545.19 C 1662.19 545.19 1644.7 620.26 1677.88 665.41" style="fill: none; stroke: rgb(211, 160, 0); stroke-linecap: round; stroke-linejoin: round; stroke-width: 3px;"/>
        <path class="cls-10" d="M 1801.92 568.7 C 1801.92 568.7 1770.13 652.51 1720.92 668" style="fill: none; stroke: rgb(211, 160, 0); stroke-linecap: round; stroke-linejoin: round; stroke-width: 3px;"/>
        <path class="cls-10" d="M 1873 632.11 C 1873 632.11 1721.69 702.11 1703.64 843.24" style="fill: none; stroke: rgb(211, 160, 0); stroke-linecap: round; stroke-linejoin: round; stroke-width: 3px;"/>
        <path class="cls-10" d="M 1827.26 585.15 C 1827.26 585.15 1803.35 615.97 1813.46 669.63" style="fill: none; stroke: rgb(211, 160, 0); stroke-linecap: round; stroke-linejoin: round; stroke-width: 3px;"/>
        <path class="cls-10" d="M 1732.81 758.76 C 1767.81 706.31 1885.46 720.76 1897.81 672.67" style="fill: none; stroke: rgb(211, 160, 0); stroke-linecap: round; stroke-linejoin: round; stroke-width: 3px;"/>
        <path class="cls-10" d="M 1918.23 723.07 C 1918.23 723.07 1882.96 735.93 1833.63 711.57" style="fill: none; stroke: rgb(211, 160, 0); stroke-linecap: round; stroke-linejoin: round; stroke-width: 3px;"/>
        <path class="cls-10" d="M 1927.29 759.11 C 1912.21 759.92 1851.18 782.21 1844.29 843.24" style="fill: none; stroke: rgb(211, 160, 0); stroke-linecap: round; stroke-linejoin: round; stroke-width: 3px;"/>
        <path class="cls-10" d="M 1961.39 762.33 C 1961.39 762.33 1928.13 781.15 1933.39 843.24" style="fill: none; stroke: rgb(211, 160, 0); stroke-linecap: round; stroke-linejoin: round; stroke-width: 3px;"/>
        <path class="cls-10" d="M 1985 772.77 C 1985 772.77 1976.88 820.97 1932.86 832.11" style="fill: none; stroke: rgb(211, 160, 0); stroke-linecap: round; stroke-linejoin: round; stroke-width: 3px;"/>
        <path class="cls-10" d="M 1918.23 760.84 C 1918.23 760.84 1919.23 796.08 1935.41 805.11" style="fill: none; stroke: rgb(211, 160, 0); stroke-linecap: round; stroke-linejoin: round; stroke-width: 3px;"/>
        <path class="cls-10" d="M 1862.66 798 C 1862.66 798 1911.45 790.72 1925.1 843.26" style="fill: none; stroke: rgb(211, 160, 0); stroke-linecap: round; stroke-linejoin: round; stroke-width: 3px;"/>
        <path class="cls-10" d="M 1853.29 812.72 C 1853.29 812.72 1879.62 819.53 1897.77 805.11" style="fill: none; stroke: rgb(211, 160, 0); stroke-linecap: round; stroke-linejoin: round; stroke-width: 3px;"/>
        <path class="cls-10" d="M 2005.34 793 C 2005.34 793 1969 802.37 1970.59 843.23 C 1970.59 843.23 1974.31 818.82 1992.88 818.29 C 2011.45 817.76 2010.88 843.23 2010.88 843.23" style="fill: none; stroke: rgb(211, 160, 0); stroke-linecap: round; stroke-linejoin: round; stroke-width: 3px;"/>
        <path class="cls-10" d="M 1673.87 721.7 C 1673.87 669.63 1575.72 632.11 1585.55 573.77" style="fill: none; stroke: rgb(211, 160, 0); stroke-linecap: round; stroke-linejoin: round; stroke-width: 3px;"/>
        <path class="cls-10" d="M 1521.7 637.91 C 1521.7 637.91 1550 664.1 1612 635.58" style="fill: none; stroke: rgb(211, 160, 0); stroke-linecap: round; stroke-linejoin: round; stroke-width: 3px;"/>
        <path class="cls-10" d="M 1616.91 557.44 C 1616.91 557.44 1647.66 562.18 1661.39 627.39" style="fill: none; stroke: rgb(211, 160, 0); stroke-linecap: round; stroke-linejoin: round; stroke-width: 3px;"/>
        <path class="cls-10" d="M 1501.61 672.67 C 1501.61 672.67 1577.84 707.9 1561.92 843.24" style="fill: none; stroke: rgb(211, 160, 0); stroke-linecap: round; stroke-linejoin: round; stroke-width: 3px;"/>
        <path class="cls-10" d="M 1577.31 647.73 C 1577.31 647.73 1601.9 733.89 1562.01 775.3" style="fill: none; stroke: rgb(211, 160, 0); stroke-linecap: round; stroke-linejoin: round; stroke-width: 3px;"/>
        <path class="cls-10" d="M 1491.47 695.22 C 1491.47 695.22 1499.36 717.62 1538.07 707.72" style="fill: none; stroke: rgb(211, 160, 0); stroke-linecap: round; stroke-linejoin: round; stroke-width: 3px;"/>
        <path class="cls-10" d="M 1590.58 843.24 C 1590.58 843.24 1581.03 789.11 1626.67 789.11 C 1672.31 789.11 1673.87 843.24 1673.87 843.24" style="fill: none; stroke: rgb(211, 160, 0); stroke-linecap: round; stroke-linejoin: round; stroke-width: 3px;"/>
        <path class="cls-10" d="M 1584.81 711.57 C 1600.14 713.74 1667.69 733.1 1682.21 801.18" style="fill: none; stroke: rgb(211, 160, 0); stroke-linecap: round; stroke-linejoin: round; stroke-width: 3px;"/>
        <path class="cls-10" d="M 1473.82 752.66 C 1491.47 758.76 1536.98 790.17 1543.35 843.24" style="fill: none; stroke: rgb(211, 160, 0); stroke-linecap: round; stroke-linejoin: round; stroke-width: 3px;"/>
        <path class="cls-10" d="M 1478.6 843.24 C 1478.6 843.24 1462.02 788.6 1475.35 745.45" style="fill: none; stroke: rgb(211, 160, 0); stroke-linecap: round; stroke-linejoin: round; stroke-width: 3px;"/>
        <path class="cls-10" d="M 1405.34 741.5 C 1405.34 741.5 1440.91 758.32 1428.71 843.24" style="fill: none; stroke: rgb(211, 160, 0); stroke-linecap: round; stroke-linejoin: round; stroke-width: 3px;"/>
        <path class="cls-10" d="M 1448.93 746.9 C 1448.93 746.9 1452.38 789.76 1431.26 802.44" style="fill: none; stroke: rgb(211, 160, 0); stroke-linecap: round; stroke-linejoin: round; stroke-width: 3px;"/>
        <path class="cls-10" d="M 1769.44 843.24 C 1769.97 828.38 1784.61 761.42 1897.77 769.16" style="fill: none; stroke: rgb(211, 160, 0); stroke-linecap: round; stroke-linejoin: round; stroke-width: 3px;"/>
        <path class="cls-10" d="M 1341.13 746.9 C 1341.13 746.9 1369.34 794.74 1420.25 757.96" style="fill: none; stroke: rgb(211, 160, 0); stroke-linecap: round; stroke-linejoin: round; stroke-width: 3px;"/>
        <path class="cls-10" d="M 1366.08 843.24 C 1366.08 843.24 1348.56 825.73 1317.78 828.91 C 1287 832.09 1283.28 843.24 1283.28 843.24" style="fill: none; stroke: rgb(211, 160, 0); stroke-linecap: round; stroke-linejoin: round; stroke-width: 3px;"/>
        <path class="cls-10" d="M 1418.3 843.24 C 1418.3 843.24 1410.13 804.32 1368.73 809.72 C 1327.33 815.12 1326.27 843.24 1326.27 843.24" style="fill: none; stroke: rgb(211, 160, 0); stroke-linecap: round; stroke-linejoin: round; stroke-width: 3px;"/>
      </g>
    </g>
    <g transform="matrix(1, 0, 0, 1, -3.736653, -228.69693)">
      <g>
        <g transform="matrix(1, 0, 0, 1, 46.970554, 27.821321)">
          <path class="cls-9" d="M 162.65 1058.58 L 589.37 1058.58 C 591.49 983.92 502.37 988.87 502.37 988.87 C 502.37 988.87 500.93 893.46 372.87 871.4 C 319.41 862.2 152.923 871.398 162.65 1058.58 Z" style="fill: rgb(249, 197, 67);"/>
        </g>
        <path class="cls-10" d="M 208.237 1086.309 L 637.681 1086.263 C 639.801 1011.603 550.681 1016.553 550.681 1016.553 C 550.681 1016.553 549.241 921.143 421.181 899.083 C 367.721 889.883 206.676 897.143 208.237 1086.309 Z" style="fill: none; stroke: rgb(211, 160, 0); stroke-linecap: round; stroke-linejoin: round; stroke-width: 3px;"/>
        <path class="cls-10" d="M 408.071 897.463 C 408.071 897.463 365.071 984.883 403.271 1086.263" style="fill: none; stroke: rgb(211, 160, 0); stroke-linecap: round; stroke-linejoin: round; stroke-width: 3px;"/>
        <path class="cls-10" d="M 373.541 897.213 C 373.541 897.213 366.621 945.723 388.921 971.143" style="fill: none; stroke: rgb(211, 160, 0); stroke-linecap: round; stroke-linejoin: round; stroke-width: 3px;"/>
        <path class="cls-10" d="M 451.231 906.233 C 451.231 906.233 433.121 978.093 387.941 1014.683" style="fill: none; stroke: rgb(211, 160, 0); stroke-linecap: round; stroke-linejoin: round; stroke-width: 3px;"/>
        <path class="cls-10" d="M 485.861 920.923 C 485.861 920.923 450.481 965.093 425.551 968.353" style="fill: none; stroke: rgb(211, 160, 0); stroke-linecap: round; stroke-linejoin: round; stroke-width: 3px;"/>
        <path class="cls-10" d="M 311.299 911.305 C 311.299 911.305 322.041 996.883 388.921 1026.183" style="fill: none; stroke: rgb(211, 160, 0); stroke-linecap: round; stroke-linejoin: round; stroke-width: 3px;"/>
        <path class="cls-10" d="M 230.321 981.378 C 230.321 981.378 278.921 935.478 338.191 981.378" style="fill: none; stroke: rgb(211, 160, 0); stroke-linecap: round; stroke-linejoin: round; stroke-width: 3px;"/>
        <path class="cls-10" d="M 397.121 1067.773 C 397.121 1006.413 523.661 1000.353 524.231 952.553" style="fill: none; stroke: rgb(211, 160, 0); stroke-linecap: round; stroke-linejoin: round; stroke-width: 3px;"/>
        <path class="cls-10" d="M 500.651 930.403 C 500.651 930.403 481.311 948.183 496.441 986.973" style="fill: none; stroke: rgb(211, 160, 0); stroke-linecap: round; stroke-linejoin: round; stroke-width: 3px;"/>
        <path class="cls-10" d="M 550.641 1016.553 C 539.641 1017.263 482.351 1039.553 481.291 1086.263" style="fill: none; stroke: rgb(211, 160, 0); stroke-linecap: round; stroke-linejoin: round; stroke-width: 3px;"/>
        <path class="cls-10" d="M 569.391 1086.263 C 564.611 1078.263 529.861 1004.703 437.901 1016.553" style="fill: none; stroke: rgb(211, 160, 0); stroke-linecap: round; stroke-linejoin: round; stroke-width: 3px;"/>
        <path class="cls-10" d="M 580.251 1019.233 C 580.251 1019.233 580.711 1055.493 550.641 1058.403" style="fill: none; stroke: rgb(211, 160, 0); stroke-linecap: round; stroke-linejoin: round; stroke-width: 3px;"/>
        <path class="cls-10" d="M 473.861 1016.553 C 473.861 1016.553 463.371 1035.363 485.861 1065.323" style="fill: none; stroke: rgb(211, 160, 0); stroke-linecap: round; stroke-linejoin: round; stroke-width: 3px;"/>
        <path class="cls-10" d="M 425.551 1086.263 C 425.551 1086.263 425.551 1067.333 442.551 1067.773 C 459.551 1068.213 460.691 1086.263 460.691 1086.263" style="fill: none; stroke: rgb(211, 160, 0); stroke-linecap: round; stroke-linejoin: round; stroke-width: 3px;"/>
        <path class="cls-10" d="M 372.531 1086.263 C 372.531 1086.263 355.531 1023.413 294.471 1026.183 C 233.411 1028.953 227.641 1086.263 227.641 1086.263" style="fill: none; stroke: rgb(211, 160, 0); stroke-linecap: round; stroke-linejoin: round; stroke-width: 3px;"/>
        <path class="cls-10" d="M 357.621 1086.263 C 357.621 1086.263 349.621 1057.403 317.821 1056.173 C 286.021 1054.943 285.971 1086.263 285.971 1086.263" style="fill: none; stroke: rgb(211, 160, 0); stroke-linecap: round; stroke-linejoin: round; stroke-width: 3px;"/>
        <path class="cls-10" d="M 296.251 962.368 C 296.251 962.368 284.391 1001.073 313.051 1027.463" style="fill: none; stroke: rgb(211, 160, 0); stroke-linecap: round; stroke-linejoin: round; stroke-width: 3px;"/>
        <path class="cls-10" d="M 277.983 961.764 C 277.983 961.764 270.538 1013.924 215.748 1024.074" style="fill: none; stroke: rgb(211, 160, 0); stroke-linecap: round; stroke-linejoin: round; stroke-width: 3px;"/>
        <path class="cls-10" d="M 338.361 902.501 C 338.361 902.501 350.051 934.183 319.541 942.743" style="fill: none; stroke: rgb(211, 160, 0); stroke-linecap: round; stroke-linejoin: round; stroke-width: 3px;"/>
        <path class="cls-10" d="M 627.191 1046.833 C 627.191 1046.833 602.831 1048.573 611.851 1086.263" style="fill: none; stroke: rgb(211, 160, 0); stroke-linecap: round; stroke-linejoin: round; stroke-width: 3px;"/>
      </g>
    </g>
    <g transform="matrix(1, 0, 0, 1, -1.353606, 9.456252)">
      <path class="cls-3" d="M 204.845 849.635 C 204.845 849.635 261.028 833.529 304.198 793.899 C 341.088 760.029 370.718 718.899 417.418 719.589 C 464.118 720.279 469.788 768.419 469.788 768.419 C 469.788 768.419 491.718 728.089 553.288 743.649 C 614.858 759.209 578.768 807.509 607.068 809.029 C 635.368 810.549 718.878 766.299 718.878 849.799 L 204.845 849.635 Z" style="fill: rgb(153, 201, 229);"/>
      <path class="cls-4" d="M 562.26 848.712 C 657.88 761.192 638.22 679.63 638.22 679.63 C 535.22 731.7 551.217 848.493 551.217 848.493" style="fill: none; stroke: rgb(255, 255, 255); stroke-linecap: round; stroke-linejoin: round; stroke-width: 3px;"/>
      <path class="cls-4" d="M 562.272 849.082 C 562.272 849.082 577.23 782.07 516.73 761.9 C 456.23 741.73 550.124 848.544 550.124 848.544" style="fill: none; stroke: rgb(255, 255, 255); stroke-linecap: round; stroke-linejoin: round; stroke-width: 3px;"/>
      <circle class="cls-5" cx="703.5" cy="777.57" r="7.73" style="fill: none; stroke: rgb(153, 201, 229); stroke-linecap: round; stroke-linejoin: round; stroke-width: 3px;"/>
    </g>
    <g transform="matrix(1, 0, 0, 1, 489.67218, 42.959)">
      <path class="cls-2" d="M 294.12 600.177 C 294.12 600.177 286.63 732.017 296.59 788.767" style="fill: none; stroke: rgb(241, 177, 4); stroke-miterlimit: 10; stroke-width: 3px;"/>
      <path class="cls-2" d="M 315.76 616.887 C 315.76 616.887 314.29 641.627 292.76 647.287" style="fill: none; stroke: rgb(241, 177, 4); stroke-miterlimit: 10; stroke-width: 3px;"/>
      <path class="cls-2" d="M 254.45 644.177 C 254.45 644.177 264.66 692.967 291.45 714.967" style="fill: none; stroke: rgb(241, 177, 4); stroke-miterlimit: 10; stroke-width: 3px;"/>
      <path class="cls-2" d="M 236.8 650.187 C 236.8 650.187 246.11 664.257 260.56 665.007" style="fill: none; stroke: rgb(241, 177, 4); stroke-miterlimit: 10; stroke-width: 3px;"/>
      <path class="cls-2" d="M 277.82 615.577 C 277.82 615.577 282.29 631.237 292.68 633.427" style="fill: none; stroke: rgb(241, 177, 4); stroke-miterlimit: 10; stroke-width: 3px;"/>
      <circle class="cls-9" cx="294.29" cy="580.957" r="20.28" style="fill: rgb(249, 197, 67);"/>
      <circle class="cls-9" cx="316.15" cy="613.937" r="6.66" style="fill: rgb(249, 197, 67);"/>
      <circle class="cls-9" cx="276.75" cy="613.237" r="5.88" style="fill: rgb(249, 197, 67);"/>
      <circle class="cls-9" cx="235.73" cy="648.957" r="5.33" style="fill: rgb(249, 197, 67);"/>
      <circle class="cls-9" cx="253.96" cy="632.617" r="12.44" style="fill: rgb(249, 197, 67);"/>
      <path class="cls-11" d="M 250.95 824.757 C 250.95 824.757 178.33 804.807 193.28 771.327 C 202.12 751.517 256.96 805.647 256.96 805.647 C 256.96 805.647 206.72 752.647 214.86 655.297 C 214.86 655.297 275.12 698.087 296.59 767.437 C 296.59 767.437 308.59 665.887 351.44 630.507 C 351.44 630.507 361.7 653.857 348.61 730.287 C 348.61 730.287 391.77 681.457 419.37 668.367 C 419.37 668.367 402.03 739.487 377.62 772.747 C 377.62 772.747 406.28 758.237 419.37 780.527 C 432.46 802.817 389.65 823.347 389.65 823.347 Z" style="fill: rgb(174, 166, 31);"/>
      <path class="cls-12" d="M 216.45 658.497 C 216.45 658.497 263.214 789.569 293.644 822.829" style="fill: none; stroke: rgb(159, 147, 0); stroke-linecap: round; stroke-linejoin: round; stroke-width: 3px;"/>
      <path class="cls-12" d="M 351.372 633.002 C 351.38 633.002 326.023 767.165 311.823 811.422 C 310.017 817.049 308.711 820.299 307.341 822.559" style="fill: none; stroke: rgb(159, 147, 0); stroke-linecap: round; stroke-linejoin: round; stroke-width: 3px;"/>
      <path class="cls-12" d="M 416.17 672.097 C 416.17 672.097 349.31 793.547 314.99 823.097" style="fill: none; stroke: rgb(159, 147, 0); stroke-linecap: round; stroke-linejoin: round; stroke-width: 3px;"/>
      <path class="cls-12" d="M 415.031 778.122 C 415.031 778.122 373.548 815.449 342.728 822.769" style="fill: none; stroke: rgb(159, 147, 0); stroke-linecap: round; stroke-linejoin: round; stroke-width: 3px;"/>
      <path class="cls-12" d="M 195.265 770.802 C 195.265 770.802 231.13 813.607 268.34 823.157" style="fill: none; stroke: rgb(159, 147, 0); stroke-linecap: round; stroke-linejoin: round; stroke-width: 3px;"/>
      <line class="cls-12" x1="251.227" y1="823.001" x2="388.994" y2="823.001" style="fill: none; stroke: rgb(159, 147, 0); stroke-linecap: round; stroke-linejoin: round; stroke-width: 3px;"/>
    </g>
    <g transform="matrix(1, 0, 0, 1, -327.463959, -183.625687)">
      <g/>
      <g transform="matrix(1, 0, 0, 1, 66.369019, -19.769783)">
        <path class="cls-3" d="M 1413.67 1058.58 C 1413.67 1058.58 1415.67 973.46 1490.6 973.13 C 1543.68 972.89 1558.51 998.06 1558.51 998.06 C 1558.51 998.06 1506.51 911.06 1602.59 891.39 C 1698.67 871.72 1720.88 988.6 1764.01 1000.19 C 1807.45 1011.87 1911.1 967.64 1884.41 1058.58 Z" style="fill: rgb(153, 201, 229);"/>
        <path class="cls-4" d="M 1657.19 1061.57 C 1571.92 1014.91 1582.62 932.66 1582.62 932.66 C 1668.21 959.12 1660.8 1059.47 1660.8 1059.47" style="fill: none; stroke: rgb(255, 255, 255); stroke-linecap: round; stroke-linejoin: round; stroke-width: 3px;"/>
        <path class="cls-4" d="M 1653 1061.38 C 1653 1061.38 1639.29 1013.26 1687.53 991.29 C 1731.05 971.47 1663.47 1058.81 1663.47 1058.81" style="fill: none; stroke: rgb(255, 255, 255); stroke-linecap: round; stroke-linejoin: round; stroke-width: 3px;"/>
        <circle class="cls-5" cx="1526.275" cy="931.47" r="9.06" style="fill: none; stroke: rgb(153, 201, 229); stroke-linecap: round; stroke-linejoin: round; stroke-width: 3px;"/>
        <circle class="cls-5" cx="1913.29" cy="1009.45" r="7.73" style="fill: none; stroke: rgb(153, 201, 229); stroke-linecap: round; stroke-linejoin: round; stroke-width: 3px;"/>
        <circle class="cls-4" cx="1459.82" cy="1009.45" r="10.61" style="fill: none; stroke: rgb(255, 255, 255); stroke-linecap: round; stroke-linejoin: round; stroke-width: 3px;"/>
      </g>
    </g>
    <g transform="matrix(1, 0, 0, 1, 403.7323, -56.427113)">
      <path class="cls-11" d="M 1318.349 922.614 C 1318.349 922.614 1390.969 902.614 1376.019 869.184 C 1367.179 849.374 1312.329 903.504 1312.329 903.504 C 1312.329 903.504 1362.579 850.504 1354.439 753.154 C 1354.439 753.154 1294.169 795.944 1272.709 865.294 C 1272.709 865.294 1260.709 763.744 1217.859 728.364 C 1217.859 728.364 1207.599 751.714 1220.689 828.144 C 1220.689 828.144 1177.529 779.314 1149.929 766.224 C 1149.929 766.224 1167.269 837.344 1191.679 870.604 C 1191.679 870.604 1163.019 856.094 1149.929 878.384 C 1136.839 900.674 1179.649 921.204 1179.649 921.204 Z" style="fill: rgb(174, 166, 31);"/>
      <path class="cls-12" d="M 1352.839 756.354 C 1352.839 756.354 1305.609 887.944 1275.179 921.204" style="fill: none; stroke: rgb(159, 147, 0); stroke-linecap: round; stroke-linejoin: round; stroke-width: 3px;"/>
      <path class="cls-12" d="M 1218.399 731.034 C 1218.399 731.034 1251.009 901.484 1262.739 921.514" style="fill: none; stroke: rgb(159, 147, 0); stroke-linecap: round; stroke-linejoin: round; stroke-width: 3px;"/>
      <path class="cls-12" d="M 1153.129 769.954 C 1153.129 769.954 1219.989 891.404 1254.309 920.954" style="fill: none; stroke: rgb(159, 147, 0); stroke-linecap: round; stroke-linejoin: round; stroke-width: 3px;"/>
      <path class="cls-12" d="M 1152.179 875.094 C 1152.179 875.094 1195.179 913.824 1225.999 921.094" style="fill: none; stroke: rgb(159, 147, 0); stroke-linecap: round; stroke-linejoin: round; stroke-width: 3px;"/>
      <path class="cls-12" d="M 1374.959 869.184 C 1374.959 869.184 1338.159 911.464 1300.959 921.014" style="fill: none; stroke: rgb(159, 147, 0); stroke-linecap: round; stroke-linejoin: round; stroke-width: 3px;"/>
      <line class="cls-12" x1="1318.349" y1="921.014" x2="1179.649" y2="921.014" style="fill: none; stroke: rgb(159, 147, 0); stroke-linecap: round; stroke-linejoin: round; stroke-width: 3px;"/>
    </g>
  </g>
</svg>