<?xml version="1.0" encoding="utf-8"?>
<svg viewBox="-298.041 -311.222 816.07 945.66" xmlns="http://www.w3.org/2000/svg">
  <g transform="matrix(1, 0, 0, 1, -360.555878, -320.565521)">
    <title>joker</title>
    <path d="M 347.887 870.576 C 454.809 851.201 549.387 780.585 549.387 669.577 C 549.387 558.568 459.172 468.577 347.887 468.577 C 236.603 468.577 164.021 570.069 146.388 669.577 C 128.755 769.084 240.966 889.951 347.887 870.576 Z" fill="#EFF3F0" transform="matrix(0.777146, 0.62932, -0.62932, 0.777146, 499.350445, -68.905736)"/>
    <path d="M 394.961 767.179 C 420.297 767.179 438.806 747.54 438.806 723.313 C 438.806 699.086 417.321 676.451 394.961 679.447 C 372.6 682.442 347.74 696.828 351.115 723.313 C 354.49 749.798 369.624 767.179 394.961 767.179 Z" fill="#E0436B" transform="matrix(0.777146, 0.62932, -0.62932, 0.777146, 543.095172, -87.295963)"/>
    <path d="M 529.691 605.689 C 666.275 614.003 765.229 507.773 776.997 359.087 C 788.765 210.401 666.275 91.866 529.691 112.484 C 393.108 133.102 292.594 217.696 282.386 359.087 C 272.178 500.477 393.108 597.375 529.691 605.689 Z" transform="matrix(0.777146, 0.62932, -0.62932, 0.777146, 343.452297, -253.588346)" fill="#C4C8D4"/>
    <path d="M 363.399 620.367 C 400.299 622.613 427.033 593.914 430.212 553.744 C 433.391 513.576 400.299 481.552 363.399 487.123 C 326.5 492.693 299.345 515.547 296.587 553.744 C 293.829 591.943 326.5 618.121 363.399 620.367 Z" style="fill: rgb(69, 50, 100);" transform="matrix(0.777146, 0.62932, -0.62932, 0.777146, 429.313277, -105.362474)"/>
    <path d="M 492.59 391.416 C 498.648 391.785 503.037 387.073 503.559 380.478 C 504.081 373.883 498.648 368.625 492.59 369.54 C 486.532 370.454 482.073 374.207 481.621 380.478 C 481.168 386.749 486.532 391.047 492.59 391.416 Z" fill="#F0C933" transform="matrix(0.777146, 0.62932, -0.62932, 0.777146, 349.192618, -225.21765)"/>
    <path d="M 530.963 685.202 C 598.922 685.202 658.212 624.46 666.88 549.531 C 675.55 474.603 610.531 406.197 530.963 413.861 C 451.395 421.525 395.044 474.603 395.044 549.531 C 395.044 624.46 463.004 685.202 530.963 685.202 Z" style="" fill="#0F90D1" transform="matrix(0.777146, 0.62932, -0.62932, 0.777146, 464.059617, -211.990097)"/>
    <path d="M 613.63 473.582 C 644.191 473.582 666.515 449.894 666.515 420.672 C 666.515 391.45 640.6 364.149 613.63 367.763 C 586.66 371.375 556.674 388.726 560.745 420.672 C 564.816 452.618 583.07 473.582 613.63 473.582 Z" style="" fill="#E0436B" transform="matrix(0.777146, 0.62932, -0.62932, 0.777146, 401.344242, -292.339751)"/>
    <path d="M 547.059 437.905 C 556.656 438.488 563.61 431.024 564.438 420.577 C 565.264 410.129 556.656 401.8 547.059 403.248 C 537.462 404.697 530.399 410.641 529.682 420.577 C 528.964 430.511 537.462 437.321 547.059 437.905 Z" style="" fill="#F0C933" transform="matrix(0.777146, 0.62932, -0.62932, 0.777146, 386.551455, -250.567466)"/>
    <path d="M 336.215 785.407 C 345.812 785.99 352.766 778.526 353.594 768.079 C 354.42 757.631 345.812 749.302 336.215 750.75 C 326.618 752.199 319.555 758.143 318.838 768.079 C 318.12 778.013 326.618 784.823 336.215 785.407 Z" style="" fill="#F0C933" transform="matrix(0.777146, 0.62932, -0.62932, 0.777146, 558.254065, -40.436937)"/>
  </g>
</svg>