<?xml version="1.0" encoding="utf-8"?>
<svg viewBox="1182.792 644.858 697.606 697.605" xmlns="http://www.w3.org/2000/svg">
  <g transform="matrix(1, 0, 0, 1, 1230.169312, -1860.861938)" style="">
    <title>koala</title>
    <path d="M 301.334 3102.066 C 437.918 3110.38 536.873 3004.15 548.641 2855.464 C 560.409 2706.778 437.918 2588.244 301.334 2608.862 C 164.751 2629.479 64.236 2714.074 54.028 2855.464 C 43.82 2996.855 164.751 3093.752 301.334 3102.066 Z" fill="#C4C8D4" transform="matrix(0.777146, 0.62932, -0.62932, 0.777146, 1863.582549, 446.448504)"/>
    <path d="M 480.122 2901.744 C 497.553 2898.579 512.972 2887.045 512.972 2868.913 C 512.972 2850.78 498.265 2836.081 480.122 2836.081 C 461.979 2836.081 450.147 2852.659 447.272 2868.913 C 444.397 2885.166 462.691 2904.909 480.122 2901.744 Z" fill="#EFF3F0" transform="matrix(0.777146, 0.62932, -0.62932, 0.777146, 1912.533951, 337.329648)"/>
    <path d="M 418.677 2953.204 C 428.274 2953.787 435.227 2946.323 436.055 2935.875 C 436.881 2925.428 428.274 2917.098 418.677 2918.547 C 409.08 2919.995 402.016 2925.94 401.299 2935.875 C 400.583 2945.81 409.08 2952.619 418.677 2953.204 Z" fill="#E0436B" style="" transform="matrix(-0.913545, 0.406737, -0.406737, -0.913545, 1995.272248, 5447.510153)"/>
    <path d="M 184.393 2998.631 C 213.62 3000.409 234.797 2977.677 237.316 2945.858 C 239.834 2914.041 213.62 2888.674 184.393 2893.087 C 155.165 2897.499 133.655 2915.602 131.471 2945.858 C 129.286 2976.116 155.165 2996.852 184.393 2998.631 Z" fill="#453264" style="" transform="matrix(0.777146, 0.62932, -0.62932, 0.777146, 1894.858635, 540.396307)"/>
    <path d="M 392.857 2870.041 C 425.736 2871.964 449.559 2847.375 452.389 2812.957 C 455.223 2778.538 425.736 2751.1 392.857 2755.872 C 359.979 2760.645 335.781 2780.226 333.322 2812.957 C 330.868 2845.685 359.979 2868.115 392.857 2870.041 Z" style="fill: rgb(240, 201, 51);" transform="matrix(0.777146, 0.62932, -0.62932, 0.777146, 1857.667306, 379.583797)"/>
    <path d="M 200.349 2881.329 C 209.946 2881.913 216.9 2874.448 217.727 2864 C 218.554 2853.553 209.946 2845.223 200.349 2846.672 C 190.752 2848.121 183.689 2854.065 182.972 2864 C 182.254 2873.936 190.752 2880.745 200.349 2881.329 Z" fill="#453264" style="" transform="matrix(-0.453991, 0.891006, -0.891006, -0.453991, 2843.098922, 3985.617076)"/>
  </g>
</svg>