<?xml version="1.0" encoding="utf-8"?>
<svg width="1600px" height="1200px" viewBox="-3.406 20.44 1589.037 2800.356" version="1.1" xmlns="http://www.w3.org/2000/svg">
  <title>Waimakariri</title>
  <desc>Created with Sketch.</desc>
  <g transform="matrix(1, 0, 0, 1, -1398.135864, 702.079895)" style="">
    <title>ovio</title>
    <path d="M 1613.842 1009.743 C 1803.172 1021.267 1940.343 874.011 1956.655 667.903 C 1972.967 461.794 1778.939 333.738 1589.609 362.318 C 1400.277 390.899 1285.177 471.908 1271.026 667.903 C 1256.877 863.898 1424.51 998.219 1613.842 1009.743 Z" fill="#EFF3F0" style="" transform="matrix(0.777146, 0.62932, -0.62932, 0.777146, 790.346128, -863.149657)"/>
    <path d="M 1435.771 915.117 C 1445.368 915.7 1452.321 908.236 1453.149 897.788 C 1453.975 887.341 1445.368 879.011 1435.771 880.46 C 1426.174 881.908 1419.11 887.853 1418.393 897.788 C 1417.677 907.723 1426.174 914.532 1435.771 915.117 Z" fill="#E0436B" style="" transform="matrix(-0.913545, 0.406737, -0.406737, -0.913545, 3112.561898, 1133.848352)"/>
    <path d="M 1606.172 508.676 C 1626.241 508.676 1640.902 493.119 1640.902 473.929 C 1640.902 454.739 1623.884 436.809 1606.172 439.182 C 1588.46 441.555 1568.769 452.95 1571.442 473.929 C 1574.116 494.908 1586.103 508.676 1606.172 508.676 Z" fill="#7252A4" style="" transform="matrix(0.777146, 0.62932, -0.62932, 0.777146, 656.100575, -905.125935)"/>
    <path d="M 1566.899 451.692 C 1576.022 451.692 1582.686 444.621 1582.686 435.898 C 1582.686 427.176 1574.95 419.026 1566.899 420.104 C 1558.848 421.183 1549.898 426.363 1551.113 435.898 C 1552.328 445.435 1557.776 451.692 1566.899 451.692 Z" fill="#7252A4" style="" transform="matrix(0.777146, 0.62932, -0.62932, 0.777146, 623.466188, -888.915506)"/>
    <path d="M 1552.183 851.983 C 1658.01 857.185 1734.685 790.723 1743.8 697.698 C 1752.919 604.675 1658.01 530.514 1552.183 543.414 C 1446.356 556.314 1368.475 609.24 1360.564 697.698 C 1352.657 786.158 1446.356 846.782 1552.183 851.983 Z" fill="#F0C933" style="" transform="matrix(0.777146, 0.62932, -0.62932, 0.777146, 784.630604, -821.509996)"/>
    <path d="M 1771.848 706.832 C 1781.445 707.415 1788.399 699.951 1789.227 689.504 C 1790.053 679.056 1781.445 670.727 1771.848 672.175 C 1762.251 673.624 1755.188 679.568 1754.471 689.504 C 1753.753 699.438 1762.251 706.248 1771.848 706.832 Z" fill="#F0C933" style="" transform="matrix(0.777146, 0.62932, -0.62932, 0.777146, 828.741479, -961.420368)"/>
    <path d="M 1849.217 855.642 C 1878.444 857.42 1899.621 834.688 1902.14 802.869 C 1904.658 771.051 1878.444 745.684 1849.217 750.097 C 1819.989 754.509 1798.479 772.612 1796.295 802.869 C 1794.11 833.127 1819.989 853.863 1849.217 855.642 Z" fill="#453264" style="" transform="matrix(0.777146, 0.62932, -0.62932, 0.777146, 917.244605, -984.884271)"/>
    <path d="M 1907.585 769.977 C 1917.182 770.561 1924.136 763.096 1924.963 752.648 C 1925.79 742.201 1917.182 733.871 1907.585 735.32 C 1897.988 736.769 1890.925 742.713 1890.208 752.648 C 1889.49 762.584 1897.988 769.393 1907.585 769.977 Z" fill="#453264" style="" transform="matrix(-0.453991, 0.891006, -0.891006, -0.453991, 3444.177149, -605.427993)"/>
    <path d="M 1521.629 1064.761 C 1570.203 1064.761 1628.158 1027.456 1628.158 978.355 C 1628.158 929.254 1564.496 880.884 1521.629 886.956 C 1478.762 893.025 1431.102 922.18 1437.572 975.858 C 1444.043 1029.536 1473.056 1064.761 1521.629 1064.761 Z" fill="#E0436B" style="" transform="matrix(0.777146, 0.62932, -0.62932, 0.777146, 955.503174, -747.059978)"/>
    <path d="M 1625.746 900.493 C 1641.284 900.493 1652.634 889.801 1652.634 876.61 C 1652.634 863.42 1639.458 851.096 1625.746 852.728 C 1612.034 854.358 1596.789 862.19 1598.859 876.61 C 1600.928 891.03 1610.209 900.493 1625.746 900.493 Z" fill="#E0436B" style="" transform="matrix(0.777146, 0.62932, -0.62932, 0.777146, 913.905357, -827.715506)"/>
  </g>
  <g transform="matrix(1, 0, 0, 1, 1057.271729, 339.737854)" style="">
    <title>passaro</title>
    <path d="M 306.173 1297.757 C 458.722 1297.757 557.938 1420.14 582.388 1573.917 C 606.837 1727.693 582.388 1907.263 582.388 2053.598 C 582.388 2199.933 468.494 2329.757 306.173 2329.757 C 143.852 2329.757 13.66 2200.222 29.959 2053.598 C 46.258 1906.974 13.66 1732.179 29.959 1573.917 C 46.258 1415.654 153.624 1297.757 306.173 1297.757 Z" fill="#EFF3F0" transform="matrix(0.777146, 0.62932, -0.62932, 0.777146, 1210.352196, 209.582856)"/>
    <path d="M 418.877 2313.728 C 540.517 2313.728 629.377 2219.484 629.377 2103.228 C 629.377 1986.972 526.228 1878.353 418.877 1892.728 C 311.525 1907.103 192.174 1976.134 208.377 2103.228 C 224.58 2230.322 297.236 2313.728 418.877 2313.728 Z" fill="#E0436B" transform="matrix(0.777146, 0.62932, -0.62932, 0.777146, 1416.382387, 205.429037)"/>
    <path d="M 327.492 1977.5 C 391.41 1977.5 438.102 1927.955 438.102 1866.838 C 438.102 1805.721 383.901 1748.618 327.492 1756.175 C 271.083 1763.732 208.369 1800.023 216.883 1866.838 C 225.397 1933.653 263.575 1977.5 327.492 1977.5 Z" fill="#7252A4" transform="matrix(0.777146, 0.62932, -0.62932, 0.777146, 1247.521934, 210.104653)"/>
    <path d="M 435.682 2115.706 C 447.798 2116.443 456.577 2107.019 457.62 2093.83 C 458.664 2080.64 447.798 2070.124 435.682 2071.953 C 423.566 2073.782 414.649 2081.287 413.743 2093.83 C 412.838 2106.372 423.566 2114.968 435.682 2115.706 Z" fill="#453264" transform="matrix(0.777146, 0.62932, -0.62932, 0.777146, 1414.731581, 192.411084)"/>
    <path d="M 391.085 2244.727 C 427.984 2246.973 454.718 2218.274 457.897 2178.104 C 461.076 2137.935 427.984 2105.912 391.085 2111.482 C 354.185 2117.052 327.03 2139.906 324.272 2178.104 C 321.514 2216.303 354.185 2242.481 391.085 2244.727 Z" fill="#F0C933" transform="matrix(0.777146, 0.62932, -0.62932, 0.777146, 1457.725193, 239.209539)"/>
    <path d="M 174.591 1883.576 C 190.129 1883.576 201.479 1872.884 201.479 1859.693 C 201.479 1846.503 188.303 1834.179 174.591 1835.811 C 160.879 1837.441 145.634 1845.273 147.704 1859.693 C 149.773 1874.113 159.054 1883.576 174.591 1883.576 Z" fill="#E0436B" style="" transform="matrix(0.777146, 0.62932, -0.62932, 0.777146, 1209.183856, 304.60932)"/>
  </g>
  <g transform="matrix(1, 0, 0, 1, 1230.169312, -1860.861938)" style="">
    <title>koala</title>
    <path d="M 301.334 3102.066 C 437.918 3110.38 536.873 3004.15 548.641 2855.464 C 560.409 2706.778 437.918 2588.244 301.334 2608.862 C 164.751 2629.479 64.236 2714.074 54.028 2855.464 C 43.82 2996.855 164.751 3093.752 301.334 3102.066 Z" fill="#C4C8D4" transform="matrix(0.777146, 0.62932, -0.62932, 0.777146, 1863.582549, 446.448504)"/>
    <path d="M 480.122 2901.744 C 497.553 2898.579 512.972 2887.045 512.972 2868.913 C 512.972 2850.78 498.265 2836.081 480.122 2836.081 C 461.979 2836.081 450.147 2852.659 447.272 2868.913 C 444.397 2885.166 462.691 2904.909 480.122 2901.744 Z" fill="#EFF3F0" transform="matrix(0.777146, 0.62932, -0.62932, 0.777146, 1912.533951, 337.329648)"/>
    <path d="M 418.677 2953.204 C 428.274 2953.787 435.227 2946.323 436.055 2935.875 C 436.881 2925.428 428.274 2917.098 418.677 2918.547 C 409.08 2919.995 402.016 2925.94 401.299 2935.875 C 400.583 2945.81 409.08 2952.619 418.677 2953.204 Z" fill="#E0436B" style="" transform="matrix(-0.913545, 0.406737, -0.406737, -0.913545, 1995.272248, 5447.510153)"/>
    <path d="M 184.393 2998.631 C 213.62 3000.409 234.797 2977.677 237.316 2945.858 C 239.834 2914.041 213.62 2888.674 184.393 2893.087 C 155.165 2897.499 133.655 2915.602 131.471 2945.858 C 129.286 2976.116 155.165 2996.852 184.393 2998.631 Z" fill="#453264" style="" transform="matrix(0.777146, 0.62932, -0.62932, 0.777146, 1894.858635, 540.396307)"/>
    <path d="M 392.857 2870.041 C 425.736 2871.964 449.559 2847.375 452.389 2812.957 C 455.223 2778.538 425.736 2751.1 392.857 2755.872 C 359.979 2760.645 335.781 2780.226 333.322 2812.957 C 330.868 2845.685 359.979 2868.115 392.857 2870.041 Z" style="fill: rgb(240, 201, 51);" transform="matrix(0.777146, 0.62932, -0.62932, 0.777146, 1857.667306, 379.583797)"/>
    <path d="M 200.349 2881.329 C 209.946 2881.913 216.9 2874.448 217.727 2864 C 218.554 2853.553 209.946 2845.223 200.349 2846.672 C 190.752 2848.121 183.689 2854.065 182.972 2864 C 182.254 2873.936 190.752 2880.745 200.349 2881.329 Z" fill="#453264" style="" transform="matrix(-0.453991, 0.891006, -0.891006, -0.453991, 2843.098922, 3985.617076)"/>
  </g>
  <g style="" transform="matrix(1, 0, 0, 1, -810.947449, 560.254333)">
    <title>celula p</title>
    <path d="M 1360.414 1454.565 C 1370.011 1455.148 1376.964 1447.684 1377.792 1437.236 C 1378.618 1426.789 1370.011 1418.459 1360.414 1419.908 C 1350.817 1421.356 1343.753 1427.301 1343.036 1437.236 C 1342.32 1447.171 1350.817 1453.98 1360.414 1454.565 Z" fill="#E0436B" style="" transform="matrix(-0.913545, 0.406737, -0.406737, -0.913545, 3187.776388, 2196.756933)"/>
    <path d="M 1276.698 1534.941 C 1307.259 1534.941 1329.583 1511.253 1329.583 1482.031 C 1329.583 1452.809 1303.668 1425.508 1276.698 1429.122 C 1249.728 1432.734 1219.742 1450.085 1223.813 1482.031 C 1227.884 1513.977 1246.138 1534.941 1276.698 1534.941 Z" fill="#E0436B" style="" transform="matrix(0.777146, 0.62932, -0.62932, 0.777146, 1217.046026, -473.093875)"/>
  </g>
  <g transform="matrix(1, 0, 0, 1, -827.237549, -1470.041748)">
    <title>celula g</title>
    <path d="M 1328.311 2161.266 C 1378.153 2164.3 1414.264 2125.534 1418.558 2071.275 C 1422.852 2017.017 1378.153 1973.761 1328.311 1981.285 C 1278.469 1988.809 1241.789 2019.679 1238.064 2071.275 C 1234.339 2122.872 1278.469 2158.232 1328.311 2161.266 Z" style="fill: rgb(69, 50, 100);" transform="matrix(0.777146, 0.62932, -0.62932, 0.777146, 1599.30586, -374.438472)"/>
    <path d="M 1473.46 2308.682 C 1550.673 2313.383 1606.616 2253.328 1613.267 2169.271 C 1619.92 2085.215 1550.673 2018.204 1473.46 2029.86 C 1396.247 2041.516 1339.424 2089.34 1333.652 2169.271 C 1327.882 2249.203 1396.247 2303.983 1473.46 2308.682 Z" fill="#F0C933" style="" transform="matrix(0.777146, 0.62932, -0.62932, 0.777146, 1693.208749, -443.99807)"/>
    <path d="M 1429.414 2023.803 C 1439.011 2024.386 1445.964 2016.922 1446.792 2006.474 C 1447.618 1996.027 1439.011 1987.697 1429.414 1989.146 C 1419.817 1990.594 1412.753 1996.539 1412.036 2006.474 C 1411.32 2016.409 1419.817 2023.218 1429.414 2023.803 Z" style="fill: rgb(69, 50, 100);" transform="matrix(-0.913545, 0.406737, -0.406737, -0.913545, 3551.341245, 3257.954814)"/>
  </g>
  <g transform="matrix(1, 0, 0, 1, 301.784912, 211.070496)">
    <title>celula m</title>
    <path d="M 701.981 1463.182 C 772.509 1463.182 824.027 1411.609 824.027 1347.986 C 824.027 1284.367 764.221 1224.927 701.981 1232.795 C 639.74 1240.659 570.54 1278.436 579.935 1347.986 C 589.33 1417.539 631.456 1463.182 701.981 1463.182 Z" style="fill: rgb(15, 144, 209);" transform="matrix(0.777146, 0.62932, -0.62932, 0.777146, 1004.438241, -141.173619)"/>
    <path d="M 758.962 1217.579 C 768.559 1218.162 775.512 1210.698 776.34 1200.25 C 777.166 1189.803 768.559 1181.473 758.962 1182.922 C 749.365 1184.37 742.301 1190.315 741.584 1200.25 C 740.868 1210.185 749.365 1216.994 758.962 1217.579 Z" style="fill: rgb(15, 144, 209);" transform="matrix(-0.913545, 0.406737, -0.406737, -0.913545, 1940.479851, 1987.906407)"/>
    <path d="M 872.053 1322.441 C 891.076 1323.773 904.858 1306.717 906.499 1282.843 C 908.136 1258.971 891.076 1239.936 872.053 1243.247 C 853.031 1246.556 839.029 1260.14 837.608 1282.843 C 836.188 1305.545 853.031 1321.104 872.053 1322.441 Z" style="fill: rgb(15, 144, 209);" transform="matrix(-0.913545, 0.406737, -0.406737, -0.913545, 2190.45663, 2099.788981)"/>
  </g>
  <g transform="matrix(1, 0, 0, 1, -360.555878, -320.565521)">
    <title>joker</title>
    <path d="M 347.887 870.576 C 454.809 851.201 549.387 780.585 549.387 669.577 C 549.387 558.568 459.172 468.577 347.887 468.577 C 236.603 468.577 164.021 570.069 146.388 669.577 C 128.755 769.084 240.966 889.951 347.887 870.576 Z" fill="#EFF3F0" transform="matrix(0.777146, 0.62932, -0.62932, 0.777146, 499.350445, -68.905736)"/>
    <path d="M 394.961 767.179 C 420.297 767.179 438.806 747.54 438.806 723.313 C 438.806 699.086 417.321 676.451 394.961 679.447 C 372.6 682.442 347.74 696.828 351.115 723.313 C 354.49 749.798 369.624 767.179 394.961 767.179 Z" fill="#E0436B" transform="matrix(0.777146, 0.62932, -0.62932, 0.777146, 543.095172, -87.295963)"/>
    <path d="M 529.691 605.689 C 666.275 614.003 765.229 507.773 776.997 359.087 C 788.765 210.401 666.275 91.866 529.691 112.484 C 393.108 133.102 292.594 217.696 282.386 359.087 C 272.178 500.477 393.108 597.375 529.691 605.689 Z" transform="matrix(0.777146, 0.62932, -0.62932, 0.777146, 343.452297, -253.588346)" fill="#C4C8D4"/>
    <path d="M 363.399 620.367 C 400.299 622.613 427.033 593.914 430.212 553.744 C 433.391 513.576 400.299 481.552 363.399 487.123 C 326.5 492.693 299.345 515.547 296.587 553.744 C 293.829 591.943 326.5 618.121 363.399 620.367 Z" style="fill: rgb(69, 50, 100);" transform="matrix(0.777146, 0.62932, -0.62932, 0.777146, 429.313277, -105.362474)"/>
    <path d="M 492.59 391.416 C 498.648 391.785 503.037 387.073 503.559 380.478 C 504.081 373.883 498.648 368.625 492.59 369.54 C 486.532 370.454 482.073 374.207 481.621 380.478 C 481.168 386.749 486.532 391.047 492.59 391.416 Z" fill="#F0C933" transform="matrix(0.777146, 0.62932, -0.62932, 0.777146, 349.192618, -225.21765)"/>
    <path d="M 530.963 685.202 C 598.922 685.202 658.212 624.46 666.88 549.531 C 675.55 474.603 610.531 406.197 530.963 413.861 C 451.395 421.525 395.044 474.603 395.044 549.531 C 395.044 624.46 463.004 685.202 530.963 685.202 Z" style="" fill="#0F90D1" transform="matrix(0.777146, 0.62932, -0.62932, 0.777146, 464.059617, -211.990097)"/>
    <path d="M 613.63 473.582 C 644.191 473.582 666.515 449.894 666.515 420.672 C 666.515 391.45 640.6 364.149 613.63 367.763 C 586.66 371.375 556.674 388.726 560.745 420.672 C 564.816 452.618 583.07 473.582 613.63 473.582 Z" style="" fill="#E0436B" transform="matrix(0.777146, 0.62932, -0.62932, 0.777146, 401.344242, -292.339751)"/>
    <path d="M 547.059 437.905 C 556.656 438.488 563.61 431.024 564.438 420.577 C 565.264 410.129 556.656 401.8 547.059 403.248 C 537.462 404.697 530.399 410.641 529.682 420.577 C 528.964 430.511 537.462 437.321 547.059 437.905 Z" style="" fill="#F0C933" transform="matrix(0.777146, 0.62932, -0.62932, 0.777146, 386.551455, -250.567466)"/>
    <path d="M 336.215 785.407 C 345.812 785.99 352.766 778.526 353.594 768.079 C 354.42 757.631 345.812 749.302 336.215 750.75 C 326.618 752.199 319.555 758.143 318.838 768.079 C 318.12 778.013 326.618 784.823 336.215 785.407 Z" style="" fill="#F0C933" transform="matrix(0.777146, 0.62932, -0.62932, 0.777146, 558.254065, -40.436937)"/>
  </g>
  <g transform="matrix(1, 0, 0, 1, -1755.230591, 1112.7323)">
    <title>pombo</title>
    <path d="M 1763.066 1142.364 C 1822.443 1124.799 1868.155 1186.123 1882.661 1258.379 C 1897.167 1330.634 1980.655 1379.223 1983.002 1440.698 C 1985.349 1502.175 1847.299 1575.908 1779.621 1575.908 C 1711.946 1575.908 1655.588 1521.491 1660.03 1459.892 C 1664.474 1398.297 1648.079 1324.865 1652.336 1258.379 C 1656.592 1191.89 1703.689 1159.929 1763.066 1142.364 Z" fill="#0F90D1" style="" transform="matrix(0.764946, 0.644094, -0.644094, 0.764946, 1301.60419, -851.416645)"/>
    <path d="M 1674.339 1452.507 C 1710.96 1452.507 1735.246 1397.919 1742.071 1353.932 C 1748.894 1309.945 1711.842 1269.789 1664.45 1274.288 C 1617.057 1278.786 1582.427 1309.945 1580.747 1353.932 C 1579.067 1397.919 1637.718 1452.507 1674.339 1452.507 Z" fill="#7252A4" transform="matrix(0.614437, -0.788966, 0.788966, 0.614437, -434.810197, 1836.71074)"/>
    <path d="M 1807.514 1384.542 C 1815.748 1385.056 1821.915 1378.473 1822.895 1369.259 C 1823.871 1360.046 1816.686 1352.7 1808.4 1353.978 C 1800.114 1355.255 1793.89 1360.498 1793.02 1369.259 C 1792.15 1378.021 1799.28 1384.026 1807.514 1384.542 Z" fill="#E0436B" style="" transform="matrix(-0.907471, 0.420114, -0.420114, -0.907471, 4023.864164, 1852.160869)"/>
    <path d="M 1706.368 1343.341 C 1747.034 1336.859 1783 1313.232 1783 1276.095 C 1783 1238.957 1748.693 1208.849 1706.368 1208.849 C 1664.046 1208.849 1636.44 1242.803 1629.735 1276.095 C 1623.03 1309.387 1665.705 1349.823 1706.368 1343.341 Z" fill="#EFF3F0" style="" transform="matrix(0.777146, 0.62932, -0.62932, 0.777146, 1183.482052, -789.171578)"/>
  </g>
  <g transform="matrix(1.352601, 0, 0, 1.352601, -1706.958496, -3103.037109)" style="">
    <title>gameboy</title>
    <path d="M 2290.163 2300.167 C 2401.448 2300.167 2491.663 2390.381 2491.663 2501.667 C 2491.663 2612.951 2485.442 2658.271 2498.442 2766.123 C 2511.442 2873.974 2336.575 2947.031 2225.325 2933.555 C 2114.075 2920.078 2021.632 2813.903 2021.632 2689.802 C 2021.632 2565.7 1961.432 2550.523 1961.432 2428.579 C 1961.432 2306.633 2178.878 2300.167 2290.163 2300.167 Z" fill="#6759AE" transform="matrix(0.777146, 0.62932, -0.62932, 0.777146, 2144.372785, -820.20423)"/>
    <path d="M 2270.426 2871.018 C 2282.542 2871.755 2291.32 2862.331 2292.364 2849.142 C 2293.408 2835.952 2282.542 2825.436 2270.426 2827.265 C 2258.31 2829.094 2249.393 2836.599 2248.487 2849.142 C 2247.582 2861.684 2258.31 2870.28 2270.426 2871.018 Z" fill="#F0C933" transform="matrix(0.777146, 0.62932, -0.62932, 0.777146, 2298.944225, -793.90609)"/>
    <path d="M 2245.193 2618.064 C 2295.035 2621.098 2331.146 2582.332 2335.44 2528.073 C 2339.734 2473.815 2295.035 2430.559 2245.193 2438.083 C 2195.351 2445.607 2158.671 2476.477 2154.946 2528.073 C 2151.221 2579.67 2195.351 2615.03 2245.193 2618.064 Z" fill="#C4C8D4" transform="matrix(0.777146, 0.62932, -0.62932, 0.777146, 2091.108615, -849.651605)"/>
    <path d="M 2394.841 2724.989 C 2472.054 2729.69 2527.997 2669.635 2534.648 2585.578 C 2541.301 2501.522 2472.054 2434.511 2394.841 2446.167 C 2317.628 2457.823 2260.805 2505.647 2255.033 2585.578 C 2249.263 2665.51 2317.628 2720.29 2394.841 2724.989 Z" fill="#F0C933" style="" transform="matrix(0.777146, 0.62932, -0.62932, 0.777146, 2160.532234, -931.066136)"/>
    <path d="M 2285.559 2442.359 C 2295.156 2442.942 2302.109 2435.478 2302.937 2425.03 C 2303.763 2414.583 2295.156 2406.253 2285.559 2407.702 C 2275.962 2409.15 2268.898 2415.095 2268.181 2425.03 C 2267.465 2434.965 2275.962 2441.774 2285.559 2442.359 Z" fill="#E0436B" style="" transform="matrix(-0.913545, 0.406737, -0.406737, -0.913545, 5359.855584, 3710.654556)"/>
    <path d="M 2316.795 2754.722 C 2326.392 2755.305 2333.345 2747.841 2334.173 2737.393 C 2334.999 2726.946 2326.392 2718.616 2316.795 2720.065 C 2307.198 2721.513 2300.134 2727.458 2299.417 2737.393 C 2298.701 2747.328 2307.198 2754.137 2316.795 2754.722 Z" fill="#E0436B" style="" transform="matrix(-0.913545, 0.406737, -0.406737, -0.913545, 5546.676883, 4295.670487)"/>
    <path d="M 2053.458 2800.555 C 2084.019 2800.555 2106.343 2776.867 2106.343 2747.645 C 2106.343 2718.423 2080.428 2691.122 2053.458 2694.736 C 2026.488 2698.348 1996.502 2715.699 2000.573 2747.645 C 2004.644 2779.591 2022.898 2800.555 2053.458 2800.555 Z" style="fill: rgb(15, 144, 209);" transform="matrix(0.777146, 0.62932, -0.62932, 0.777146, 2186.626251, -679.877679)"/>
    <path d="M 2137.175 2720.182 C 2146.772 2720.765 2153.725 2713.301 2154.553 2702.853 C 2155.379 2692.406 2146.772 2684.076 2137.175 2685.525 C 2127.578 2686.973 2120.514 2692.918 2119.797 2702.853 C 2119.081 2712.788 2127.578 2719.597 2137.175 2720.182 Z" style="fill: rgb(15, 144, 209);" transform="matrix(-0.913545, 0.406737, -0.406737, -0.913545, 5188.917179, 4302.634678)"/>
  </g>
  <g id="Waimakariri" fill-rule="nonzero" transform="matrix(1, 0, 0, 1, -275.897278, 437.42981)" stroke="none" stroke-width="1" fill="none">
    <g transform="translate(-414.000000, -380.000000)" id="Shape">
      <rect x="683.69" y="-34.844" width="1587.98" height="85.121" style="fill: rgb(216, 216, 216); stroke: rgb(0, 0, 0);"/>
      <rect x="779.097" y="209.937" width="565.731" height="201.149" style="stroke: rgba(0, 0, 0, 0); fill: rgba(216, 216, 216, 0.33);"/>
      <rect x="723.185" y="574.279" width="1030.887" height="590.874" style="stroke: rgb(0, 0, 0); fill: rgba(216, 216, 216, 0.47);"/>
      <rect x="1823.087" y="592.168" width="360.392" height="146.671" style="stroke: rgb(0, 0, 0); fill: rgba(216, 216, 216, 0.38);"/>
      <rect x="821.569" y="1414.869" width="502.872" height="222.102" style="stroke: rgb(0, 0, 0); fill: rgba(216, 216, 216, 0.54);"/>
      <rect x="1645.077" y="1819.289" width="469.347" height="213.72" style="stroke: rgb(0, 0, 0); fill: rgba(216, 216, 216, 0.41);"/>
      <rect x="762.716" y="2276.589" width="411.192" height="197.712" style="stroke: rgb(0, 0, 0); fill: rgba(216, 216, 216, 0.45);"/>
      <rect x="1833.578" y="785.188" width="360.392" height="146.671" style="stroke: rgb(0, 0, 0); fill: rgba(216, 216, 216, 0.31);"/>
      <rect x="1826.585" y="995.528" width="360.392" height="146.671" style="stroke: rgb(0, 0, 0); fill: rgba(216, 216, 216, 0.41);"/>
      <text style="white-space: pre; fill: rgb(51, 51, 51); font-family: Arial, sans-serif; font-size: 47.5px;" x="903.959" y="1864.494">Enter your text here.</text>
      <text style="white-space: pre; fill: rgb(51, 51, 51); font-family: Arial, sans-serif; font-size: 47.5px;" x="1558.674" y="1547.908">Enter your text here.</text>
      <text style="white-space: pre; fill: rgb(51, 51, 51); font-family: Arial, sans-serif; font-size: 47.5px;" x="862.725" y="302.741">Enter your text here.</text>
      <text style="white-space: pre; fill: rgb(51, 51, 51); font-family: Arial, sans-serif; font-size: 95.4px;" x="759.52" y="672.166">Enter your text here.</text>
      <rect x="1264.466" y="2291.744" width="411.192" height="197.712" style="stroke: rgb(0, 0, 0); fill: rgba(216, 216, 216, 0.25);"/>
      <text style="white-space: pre; fill: rgb(51, 51, 51); font-family: Arial, sans-serif; font-size: 95.4px;" x="670.813" y="2226.683">Enter your text here.</text>
      <rect x="692.242" y="2561.152" width="1584.122" height="197.589" style="fill: rgb(216, 216, 216); stroke: rgb(0, 0, 0);"/>
      <rect x="1749.681" y="2289.182" width="411.192" height="197.712" style="stroke: rgb(0, 0, 0); fill: rgba(216, 216, 216, 0.27);"/>
    </g>
  </g>
</svg>