<?xml version="1.0" encoding="utf-8"?>
<svg viewBox="-256.516 916.773 944.566 939.334" xmlns="http://www.w3.org/2000/svg">
  <g transform="matrix(1, 0, 0, 1, -1398.135864, 702.079895)" style="">
    <title>ovio</title>
    <path d="M 1613.842 1009.743 C 1803.172 1021.267 1940.343 874.011 1956.655 667.903 C 1972.967 461.794 1778.939 333.738 1589.609 362.318 C 1400.277 390.899 1285.177 471.908 1271.026 667.903 C 1256.877 863.898 1424.51 998.219 1613.842 1009.743 Z" fill="#EFF3F0" style="" transform="matrix(0.777146, 0.62932, -0.62932, 0.777146, 790.346128, -863.149657)"/>
    <path d="M 1435.771 915.117 C 1445.368 915.7 1452.321 908.236 1453.149 897.788 C 1453.975 887.341 1445.368 879.011 1435.771 880.46 C 1426.174 881.908 1419.11 887.853 1418.393 897.788 C 1417.677 907.723 1426.174 914.532 1435.771 915.117 Z" fill="#E0436B" style="" transform="matrix(-0.913545, 0.406737, -0.406737, -0.913545, 3112.561898, 1133.848352)"/>
    <path d="M 1606.172 508.676 C 1626.241 508.676 1640.902 493.119 1640.902 473.929 C 1640.902 454.739 1623.884 436.809 1606.172 439.182 C 1588.46 441.555 1568.769 452.95 1571.442 473.929 C 1574.116 494.908 1586.103 508.676 1606.172 508.676 Z" fill="#7252A4" style="" transform="matrix(0.777146, 0.62932, -0.62932, 0.777146, 656.100575, -905.125935)"/>
    <path d="M 1566.899 451.692 C 1576.022 451.692 1582.686 444.621 1582.686 435.898 C 1582.686 427.176 1574.95 419.026 1566.899 420.104 C 1558.848 421.183 1549.898 426.363 1551.113 435.898 C 1552.328 445.435 1557.776 451.692 1566.899 451.692 Z" fill="#7252A4" style="" transform="matrix(0.777146, 0.62932, -0.62932, 0.777146, 623.466188, -888.915506)"/>
    <path d="M 1552.183 851.983 C 1658.01 857.185 1734.685 790.723 1743.8 697.698 C 1752.919 604.675 1658.01 530.514 1552.183 543.414 C 1446.356 556.314 1368.475 609.24 1360.564 697.698 C 1352.657 786.158 1446.356 846.782 1552.183 851.983 Z" fill="#F0C933" style="" transform="matrix(0.777146, 0.62932, -0.62932, 0.777146, 784.630604, -821.509996)"/>
    <path d="M 1771.848 706.832 C 1781.445 707.415 1788.399 699.951 1789.227 689.504 C 1790.053 679.056 1781.445 670.727 1771.848 672.175 C 1762.251 673.624 1755.188 679.568 1754.471 689.504 C 1753.753 699.438 1762.251 706.248 1771.848 706.832 Z" fill="#F0C933" style="" transform="matrix(0.777146, 0.62932, -0.62932, 0.777146, 828.741479, -961.420368)"/>
    <path d="M 1849.217 855.642 C 1878.444 857.42 1899.621 834.688 1902.14 802.869 C 1904.658 771.051 1878.444 745.684 1849.217 750.097 C 1819.989 754.509 1798.479 772.612 1796.295 802.869 C 1794.11 833.127 1819.989 853.863 1849.217 855.642 Z" fill="#453264" style="" transform="matrix(0.777146, 0.62932, -0.62932, 0.777146, 917.244605, -984.884271)"/>
    <path d="M 1907.585 769.977 C 1917.182 770.561 1924.136 763.096 1924.963 752.648 C 1925.79 742.201 1917.182 733.871 1907.585 735.32 C 1897.988 736.769 1890.925 742.713 1890.208 752.648 C 1889.49 762.584 1897.988 769.393 1907.585 769.977 Z" fill="#453264" style="" transform="matrix(-0.453991, 0.891006, -0.891006, -0.453991, 3444.177149, -605.427993)"/>
    <path d="M 1521.629 1064.761 C 1570.203 1064.761 1628.158 1027.456 1628.158 978.355 C 1628.158 929.254 1564.496 880.884 1521.629 886.956 C 1478.762 893.025 1431.102 922.18 1437.572 975.858 C 1444.043 1029.536 1473.056 1064.761 1521.629 1064.761 Z" fill="#E0436B" style="" transform="matrix(0.777146, 0.62932, -0.62932, 0.777146, 955.503174, -747.059978)"/>
    <path d="M 1625.746 900.493 C 1641.284 900.493 1652.634 889.801 1652.634 876.61 C 1652.634 863.42 1639.458 851.096 1625.746 852.728 C 1612.034 854.358 1596.789 862.19 1598.859 876.61 C 1600.928 891.03 1610.209 900.493 1625.746 900.493 Z" fill="#E0436B" style="" transform="matrix(0.777146, 0.62932, -0.62932, 0.777146, 913.905357, -827.715506)"/>
  </g>
</svg>