<?xml version="1.0" encoding="utf-8"?>
<svg viewBox="821.087 1573.76 1090.878 1165.591" xmlns="http://www.w3.org/2000/svg">
  <g transform="matrix(1, 0, 0, 1, 1057.271729, 339.737854)" style="">
    <title>passaro</title>
    <path d="M 306.173 1297.757 C 458.722 1297.757 557.938 1420.14 582.388 1573.917 C 606.837 1727.693 582.388 1907.263 582.388 2053.598 C 582.388 2199.933 468.494 2329.757 306.173 2329.757 C 143.852 2329.757 13.66 2200.222 29.959 2053.598 C 46.258 1906.974 13.66 1732.179 29.959 1573.917 C 46.258 1415.654 153.624 1297.757 306.173 1297.757 Z" fill="#EFF3F0" transform="matrix(0.777146, 0.62932, -0.62932, 0.777146, 1210.352196, 209.582856)"/>
    <path d="M 418.877 2313.728 C 540.517 2313.728 629.377 2219.484 629.377 2103.228 C 629.377 1986.972 526.228 1878.353 418.877 1892.728 C 311.525 1907.103 192.174 1976.134 208.377 2103.228 C 224.58 2230.322 297.236 2313.728 418.877 2313.728 Z" fill="#E0436B" transform="matrix(0.777146, 0.62932, -0.62932, 0.777146, 1416.382387, 205.429037)"/>
    <path d="M 327.492 1977.5 C 391.41 1977.5 438.102 1927.955 438.102 1866.838 C 438.102 1805.721 383.901 1748.618 327.492 1756.175 C 271.083 1763.732 208.369 1800.023 216.883 1866.838 C 225.397 1933.653 263.575 1977.5 327.492 1977.5 Z" fill="#7252A4" transform="matrix(0.777146, 0.62932, -0.62932, 0.777146, 1247.521934, 210.104653)"/>
    <path d="M 435.682 2115.706 C 447.798 2116.443 456.577 2107.019 457.62 2093.83 C 458.664 2080.64 447.798 2070.124 435.682 2071.953 C 423.566 2073.782 414.649 2081.287 413.743 2093.83 C 412.838 2106.372 423.566 2114.968 435.682 2115.706 Z" fill="#453264" transform="matrix(0.777146, 0.62932, -0.62932, 0.777146, 1414.731581, 192.411084)"/>
    <path d="M 391.085 2244.727 C 427.984 2246.973 454.718 2218.274 457.897 2178.104 C 461.076 2137.935 427.984 2105.912 391.085 2111.482 C 354.185 2117.052 327.03 2139.906 324.272 2178.104 C 321.514 2216.303 354.185 2242.481 391.085 2244.727 Z" fill="#F0C933" transform="matrix(0.777146, 0.62932, -0.62932, 0.777146, 1457.725193, 239.209539)"/>
    <path d="M 174.591 1883.576 C 190.129 1883.576 201.479 1872.884 201.479 1859.693 C 201.479 1846.503 188.303 1834.179 174.591 1835.811 C 160.879 1837.441 145.634 1845.273 147.704 1859.693 C 149.773 1874.113 159.054 1883.576 174.591 1883.576 Z" fill="#E0436B" style="" transform="matrix(0.777146, 0.62932, -0.62932, 0.777146, 1209.183856, 304.60932)"/>
  </g>
</svg>