<?xml version="1.0" encoding="utf-8"?>
<svg viewBox="-213.696 2196.642 543.146 547.417" xmlns="http://www.w3.org/2000/svg">
  <g transform="matrix(1, 0, 0, 1, -1755.230591, 1112.7323)">
    <title>pombo</title>
    <path d="M 1763.066 1142.364 C 1822.443 1124.799 1868.155 1186.123 1882.661 1258.379 C 1897.167 1330.634 1980.655 1379.223 1983.002 1440.698 C 1985.349 1502.175 1847.299 1575.908 1779.621 1575.908 C 1711.946 1575.908 1655.588 1521.491 1660.03 1459.892 C 1664.474 1398.297 1648.079 1324.865 1652.336 1258.379 C 1656.592 1191.89 1703.689 1159.929 1763.066 1142.364 Z" fill="#0F90D1" style="" transform="matrix(0.764946, 0.644094, -0.644094, 0.764946, 1301.60419, -851.416645)"/>
    <path d="M 1674.339 1452.507 C 1710.96 1452.507 1735.246 1397.919 1742.071 1353.932 C 1748.894 1309.945 1711.842 1269.789 1664.45 1274.288 C 1617.057 1278.786 1582.427 1309.945 1580.747 1353.932 C 1579.067 1397.919 1637.718 1452.507 1674.339 1452.507 Z" fill="#7252A4" transform="matrix(0.614437, -0.788966, 0.788966, 0.614437, -434.810197, 1836.71074)"/>
    <path d="M 1807.514 1384.542 C 1815.748 1385.056 1821.915 1378.473 1822.895 1369.259 C 1823.871 1360.046 1816.686 1352.7 1808.4 1353.978 C 1800.114 1355.255 1793.89 1360.498 1793.02 1369.259 C 1792.15 1378.021 1799.28 1384.026 1807.514 1384.542 Z" fill="#E0436B" style="" transform="matrix(-0.907471, 0.420114, -0.420114, -0.907471, 4023.864164, 1852.160869)"/>
    <path d="M 1706.368 1343.341 C 1747.034 1336.859 1783 1313.232 1783 1276.095 C 1783 1238.957 1748.693 1208.849 1706.368 1208.849 C 1664.046 1208.849 1636.44 1242.803 1629.735 1276.095 C 1623.03 1309.387 1665.705 1349.823 1706.368 1343.341 Z" fill="#EFF3F0" style="" transform="matrix(0.777146, 0.62932, -0.62932, 0.777146, 1183.482052, -789.171578)"/>
  </g>
</svg>