<?xml version="1.0" encoding="utf-8"?>
<svg viewBox="756.859 -124.975 1105.722 1125.175" xmlns="http://www.w3.org/2000/svg">
  <g transform="matrix(1.352601, 0, 0, 1.352601, -1706.958496, -3103.037109)" style="">
    <title>gameboy</title>
    <path d="M 2290.163 2300.167 C 2401.448 2300.167 2491.663 2390.381 2491.663 2501.667 C 2491.663 2612.951 2485.442 2658.271 2498.442 2766.123 C 2511.442 2873.974 2336.575 2947.031 2225.325 2933.555 C 2114.075 2920.078 2021.632 2813.903 2021.632 2689.802 C 2021.632 2565.7 1961.432 2550.523 1961.432 2428.579 C 1961.432 2306.633 2178.878 2300.167 2290.163 2300.167 Z" fill="#6759AE" transform="matrix(0.777146, 0.62932, -0.62932, 0.777146, 2144.372785, -820.20423)"/>
    <path d="M 2270.426 2871.018 C 2282.542 2871.755 2291.32 2862.331 2292.364 2849.142 C 2293.408 2835.952 2282.542 2825.436 2270.426 2827.265 C 2258.31 2829.094 2249.393 2836.599 2248.487 2849.142 C 2247.582 2861.684 2258.31 2870.28 2270.426 2871.018 Z" fill="#F0C933" transform="matrix(0.777146, 0.62932, -0.62932, 0.777146, 2298.944225, -793.90609)"/>
    <path d="M 2245.193 2618.064 C 2295.035 2621.098 2331.146 2582.332 2335.44 2528.073 C 2339.734 2473.815 2295.035 2430.559 2245.193 2438.083 C 2195.351 2445.607 2158.671 2476.477 2154.946 2528.073 C 2151.221 2579.67 2195.351 2615.03 2245.193 2618.064 Z" fill="#C4C8D4" transform="matrix(0.777146, 0.62932, -0.62932, 0.777146, 2091.108615, -849.651605)"/>
    <path d="M 2394.841 2724.989 C 2472.054 2729.69 2527.997 2669.635 2534.648 2585.578 C 2541.301 2501.522 2472.054 2434.511 2394.841 2446.167 C 2317.628 2457.823 2260.805 2505.647 2255.033 2585.578 C 2249.263 2665.51 2317.628 2720.29 2394.841 2724.989 Z" fill="#F0C933" style="" transform="matrix(0.777146, 0.62932, -0.62932, 0.777146, 2160.532234, -931.066136)"/>
    <path d="M 2285.559 2442.359 C 2295.156 2442.942 2302.109 2435.478 2302.937 2425.03 C 2303.763 2414.583 2295.156 2406.253 2285.559 2407.702 C 2275.962 2409.15 2268.898 2415.095 2268.181 2425.03 C 2267.465 2434.965 2275.962 2441.774 2285.559 2442.359 Z" fill="#E0436B" style="" transform="matrix(-0.913545, 0.406737, -0.406737, -0.913545, 5359.855584, 3710.654556)"/>
    <path d="M 2316.795 2754.722 C 2326.392 2755.305 2333.345 2747.841 2334.173 2737.393 C 2334.999 2726.946 2326.392 2718.616 2316.795 2720.065 C 2307.198 2721.513 2300.134 2727.458 2299.417 2737.393 C 2298.701 2747.328 2307.198 2754.137 2316.795 2754.722 Z" fill="#E0436B" style="" transform="matrix(-0.913545, 0.406737, -0.406737, -0.913545, 5546.676883, 4295.670487)"/>
    <path d="M 2053.458 2800.555 C 2084.019 2800.555 2106.343 2776.867 2106.343 2747.645 C 2106.343 2718.423 2080.428 2691.122 2053.458 2694.736 C 2026.488 2698.348 1996.502 2715.699 2000.573 2747.645 C 2004.644 2779.591 2022.898 2800.555 2053.458 2800.555 Z" style="fill: rgb(15, 144, 209);" transform="matrix(0.777146, 0.62932, -0.62932, 0.777146, 2186.626251, -679.877679)"/>
    <path d="M 2137.175 2720.182 C 2146.772 2720.765 2153.725 2713.301 2154.553 2702.853 C 2155.379 2692.406 2146.772 2684.076 2137.175 2685.525 C 2127.578 2686.973 2120.514 2692.918 2119.797 2702.853 C 2119.081 2712.788 2127.578 2719.597 2137.175 2720.182 Z" style="fill: rgb(15, 144, 209);" transform="matrix(-0.913545, 0.406737, -0.406737, -0.913545, 5188.917179, 4302.634678)"/>
  </g>
</svg>